<?xml version="1.0" encoding="utf-8"?>
<!-- Generator: Adobe Illustrator 15.1.0, SVG Export Plug-In . SVG Version: 6.00 Build 0)  -->
<!DOCTYPE svg PUBLIC "-//W3C//DTD SVG 1.1//EN" "http://www.w3.org/Graphics/SVG/1.1/DTD/svg11.dtd">
<svg version="1.1" id="Layer_1" xmlns="http://www.w3.org/2000/svg" xmlns:xlink="http://www.w3.org/1999/xlink" x="0px" y="0px"
	 width="596.97px" height="102.723px" viewBox="0 0 596.97 102.723" enable-background="new 0 0 596.97 102.723"
	 xml:space="preserve">
<path d="M204.078,82.879c0,6.627-5.373,12-12,12H46.865c-6.627,0-12-5.373-12-12V0h169.212V82.879z"/>
<g>
	<path fill="#FFFFFF" d="M243.051,39.747c-1.482,2.184-4.173,3.51-7.839,3.51c-7.293,0-11.974-5.46-11.974-13.027
		c0-7.683,5.382-13.144,13.339-13.144c6.201,0,9.75,2.886,9.75,5.5c0,2.262-2.808,2.925-2.964,2.73
		c-1.443-2.145-3.978-3.315-6.513-3.315c-4.485,0-7.761,3.393-7.761,8.424c0,4.992,2.886,8.424,7.41,8.424
		c3.549,0,6.084-1.911,6.435-4.797V33.39h-4.485c-1.833,0-2.77-0.507-2.77-2.067v-0.234c0-1.638,0.937-2.067,2.77-2.067h7.137
		c1.794,0,2.418,0.936,2.379,2.73v10.686c0,0.156-0.858,0.546-1.911,0.546C244.65,42.984,243.285,42.36,243.051,39.747z"/>
	<path fill="#FFFFFF" d="M252.449,33.468c0-5.811,4.173-10.102,9.945-10.102c5.616,0,9.477,3.939,9.477,9.517v0.39
		c-0.039,0.975-0.312,1.521-1.326,1.521h-13.144c0.39,2.847,2.574,4.524,5.538,4.524c2.886,0,4.485-1.287,5.382-2.808
		c0.039-0.078,2.652,0.273,2.652,2.457c0,2.067-2.925,4.368-8.229,4.368C256.544,43.335,252.449,39.474,252.449,33.468z
		 M257.402,31.596h9.36c-0.117-2.652-1.794-4.407-4.446-4.407C259.742,27.188,257.792,29.021,257.402,31.596z"/>
	<path fill="#FFFFFF" d="M274.874,26.174v-0.351c0-1.326,0.741-2.028,2.301-2.028h0.936v-2.418c0-1.794,0.936-2.652,2.496-2.652
		h0.468c1.482,0,2.458,0.624,2.458,2.652v2.418h3.315c1.56,0,2.223,0.663,2.223,1.95v0.312c0,1.326-0.702,2.028-2.262,2.028h-3.393
		v8.112c0,1.872,0.624,2.808,2.106,2.808c1.131,0,1.872-0.546,2.457-1.287c0.078-0.117,1.326,0.624,1.326,2.146
		c0,1.911-1.911,3.471-5.031,3.471c-4.212,0-6.162-2.223-6.162-6.513v-8.736h-0.936C275.615,28.085,274.874,27.422,274.874,26.174z"
		/>
	<path fill="#FFFFFF" d="M300.809,33.468c0-5.811,4.173-10.102,9.945-10.102c5.616,0,9.478,3.939,9.478,9.517v0.39
		c-0.039,0.975-0.312,1.521-1.326,1.521h-13.144c0.39,2.847,2.574,4.524,5.538,4.524c2.886,0,4.485-1.287,5.383-2.808
		c0.039-0.078,2.651,0.273,2.651,2.457c0,2.067-2.925,4.368-8.229,4.368C304.903,43.335,300.809,39.474,300.809,33.468z
		 M305.762,31.596h9.36c-0.117-2.652-1.794-4.407-4.446-4.407C308.102,27.188,306.151,29.021,305.762,31.596z"/>
	<path fill="#FFFFFF" d="M336.532,26.37c0.702-2.184,1.833-2.808,3.003-2.808c1.677,0,3.081,1.326,2.964,1.638l-6.824,16.42
		c-0.469,1.131-1.834,1.443-3.082,1.443c-1.287,0-2.613-0.273-3.081-1.404l-6.903-16.459c-0.117-0.312,1.326-1.638,2.965-1.638
		c1.326,0,2.418,0.624,3.119,2.808l3.861,11.427L336.532,26.37z"/>
	<path fill="#FFFFFF" d="M344.878,33.468c0-5.811,4.174-10.102,9.945-10.102c5.617,0,9.478,3.939,9.478,9.517v0.39
		c-0.039,0.975-0.312,1.521-1.325,1.521h-13.145c0.391,2.847,2.574,4.524,5.539,4.524c2.886,0,4.484-1.287,5.382-2.808
		c0.039-0.078,2.651,0.273,2.651,2.457c0,2.067-2.924,4.368-8.229,4.368C348.974,43.335,344.878,39.474,344.878,33.468z
		 M349.831,31.596h9.361c-0.117-2.652-1.795-4.407-4.447-4.407C352.171,27.188,350.222,29.021,349.831,31.596z"/>
	<path fill="#FFFFFF" d="M374.323,26.837c0.78-2.184,2.34-3.471,4.641-3.471c2.224,0,3.55,1.248,3.55,3.198
		c0,2.184-1.677,2.964-1.755,2.886c-0.586-0.546-1.443-0.936-2.496-0.936c-2.691,0-3.861,2.34-3.861,6.162v5.694
		c0,1.989-1.014,2.613-2.418,2.613h-0.586c-1.481,0-2.496-0.585-2.496-2.613V24.225c0-0.156,0.976-0.624,2.068-0.624
		C372.412,23.601,373.972,24.264,374.323,26.837z"/>
	<path fill="#FFFFFF" d="M390.196,48.795l3.158-7.176c-0.896-0.117-1.442-0.468-1.793-1.248l-6.553-15.172
		c-0.117-0.312,1.326-1.599,3.003-1.638c1.287,0,2.418,0.624,3.081,2.769l4.135,10.881l3.666-10.842
		c0.662-2.145,1.832-2.808,3.041-2.808c1.561,0,3.082,1.287,2.965,1.56l-8.658,22.504c-0.819,2.066-1.911,2.691-3.12,2.691
		C391.522,50.317,390.04,49.068,390.196,48.795z"/>
	<path fill="#FFFFFF" d="M407.238,33.312c0-5.85,4.173-9.945,10.218-9.945c6.007,0,10.141,4.095,10.141,10.023
		s-4.134,9.945-10.219,9.945C411.333,43.335,407.238,39.318,407.238,33.312z M422.722,33.39c0-3.315-2.223-5.733-5.305-5.733
		c-3.08,0-5.343,2.379-5.343,5.655c0,3.315,2.263,5.694,5.343,5.694C420.46,39.006,422.722,36.627,422.722,33.39z"/>
	<path fill="#FFFFFF" d="M437.657,26.721c1.326-1.95,3.315-3.354,6.279-3.354c4.953,0,7.06,3.51,7.06,7.878v9.126
		c0,1.989-1.014,2.613-2.418,2.613h-0.585c-1.482,0-2.496-0.585-2.496-2.613v-8.308c0-2.535-1.287-4.095-3.51-4.095
		c-1.95,0-3.433,1.014-4.213,2.496v9.906c0,1.989-1.014,2.613-2.418,2.613h-0.585c-1.481,0-2.496-0.585-2.496-2.613V24.225
		c0-0.156,0.976-0.624,2.067-0.624C435.747,23.601,437.268,24.264,437.657,26.721z"/>
	<path fill="#FFFFFF" d="M455.48,33.468c0-5.811,4.173-10.102,9.945-10.102c5.616,0,9.478,3.939,9.478,9.517v0.39
		c-0.039,0.975-0.312,1.521-1.326,1.521h-13.144c0.39,2.847,2.574,4.524,5.538,4.524c2.887,0,4.485-1.287,5.383-2.808
		c0.039-0.078,2.651,0.273,2.651,2.457c0,2.067-2.925,4.368-8.229,4.368C459.575,43.335,455.48,39.474,455.48,33.468z
		 M460.434,31.596h9.36c-0.117-2.652-1.794-4.407-4.446-4.407C462.773,27.188,460.823,29.021,460.434,31.596z"/>
	<path fill="#FFFFFF" d="M222.849,69.311c0-5.85,4.173-9.945,10.218-9.945c6.006,0,10.14,4.096,10.14,10.023
		c0,5.929-4.134,9.945-10.218,9.945C226.943,79.334,222.849,75.318,222.849,69.311z M238.332,69.389
		c0-3.314-2.223-5.732-5.304-5.732s-5.343,2.379-5.343,5.654c0,3.316,2.262,5.695,5.343,5.695
		C236.07,75.006,238.332,72.627,238.332,69.389z"/>
	<path fill="#FFFFFF" d="M253.268,62.721c1.326-1.951,3.315-3.355,6.279-3.355c4.953,0,7.059,3.511,7.059,7.879v9.127
		c0,1.988-1.014,2.613-2.418,2.613h-0.585c-1.482,0-2.496-0.586-2.496-2.613v-8.309c0-2.534-1.287-4.094-3.51-4.094
		c-1.95,0-3.432,1.014-4.212,2.496v9.906c0,1.988-1.014,2.613-2.418,2.613h-0.585c-1.482,0-2.496-0.586-2.496-2.613V60.225
		c0-0.156,0.975-0.625,2.067-0.625C251.357,59.6,252.878,60.264,253.268,62.721z"/>
	<path fill="#FFFFFF" d="M278.773,62.174v-0.352c0-1.325,0.741-2.027,2.301-2.027h0.936v-2.418c0-1.795,0.936-2.652,2.496-2.652
		h0.468c1.482,0,2.457,0.624,2.457,2.652v2.418h3.315c1.56,0,2.223,0.663,2.223,1.95v0.312c0,1.326-0.702,2.028-2.262,2.028h-3.393
		v8.112c0,1.872,0.624,2.809,2.106,2.809c1.131,0,1.872-0.547,2.457-1.287c0.078-0.117,1.326,0.623,1.326,2.145
		c0,1.911-1.911,3.471-5.031,3.471c-4.212,0-6.162-2.223-6.162-6.513v-8.736h-0.936C279.515,64.085,278.773,63.422,278.773,62.174z"
		/>
	<path fill="#FFFFFF" d="M303.032,62.837c1.209-1.989,3.159-3.472,6.162-3.472c4.953,0,7.059,3.589,7.059,8.035v8.971
		c0,1.988-1.014,2.613-2.418,2.613h-0.585c-1.482,0-2.496-0.586-2.496-2.613V68.18c0-2.651-1.326-4.211-3.471-4.211
		c-2.613,0-4.251,1.715-4.251,4.445v7.957c0,1.988-1.014,2.613-2.418,2.613h-0.585c-1.482,0-2.496-0.586-2.496-2.613V52.346
		c0-0.195,0.975-0.624,2.067-0.624c1.638,0,3.432,0.858,3.432,4.407V62.837z"/>
	<path fill="#FFFFFF" d="M320.737,69.467c0-5.811,4.172-10.102,9.945-10.102c5.615,0,9.477,3.939,9.477,9.518v0.39
		c-0.039,0.976-0.312,1.521-1.326,1.521H325.69c0.39,2.848,2.573,4.524,5.537,4.524c2.887,0,4.486-1.287,5.383-2.808
		c0.039-0.078,2.652,0.272,2.652,2.457c0,2.066-2.926,4.367-8.229,4.367C324.832,79.334,320.737,75.474,320.737,69.467z
		 M325.69,67.596h9.359c-0.117-2.652-1.794-4.408-4.445-4.408C328.03,63.188,326.08,65.022,325.69,67.596z"/>
	<path fill="#FFFFFF" d="M351.663,75.124c0-1.404,1.561-2.379,1.678-2.263c1.326,1.404,3.471,2.535,6.279,2.535
		c2.145,0,3.354-0.624,3.354-1.833c0-1.443-1.521-1.678-4.096-2.223c-2.612-0.586-6.707-1.443-6.707-5.773
		c0-3.705,3.119-6.162,7.955-6.162c5.148,0,7.723,1.873,7.723,4.057c0,1.443-1.677,2.457-1.794,2.34
		c-1.287-1.482-3.354-2.535-5.577-2.535c-2.066,0-3.236,0.664-3.236,1.873c0,1.365,1.521,1.56,4.056,2.145
		c2.69,0.585,7.021,1.482,7.021,5.811c0,3.822-3.16,6.163-8.386,6.163C354.354,79.257,351.663,77.307,351.663,75.124z"/>
	<path fill="#FFFFFF" d="M372.138,73.758c0-4.369,3.9-6.357,12.246-6.475h0.625c0-2.457-1.365-3.783-3.9-3.783
		c-2.652,0-4.018,1.443-4.719,2.926c0,0.078-3.55,0.194-3.55-2.341c0-2.379,2.808-4.72,8.62-4.72c6.006,0,8.97,2.73,8.97,7.84
		v11.271c0,0.273-1.015,0.624-2.067,0.624c-1.755,0-2.925-0.937-3.236-3.003c-1.365,1.988-3.783,3.159-6.592,3.159
		C374.556,79.257,372.138,76.995,372.138,73.758z M385.009,71.379v-1.093l-1.015,0.039c-4.329,0.117-6.591,0.976-6.591,3.042
		c0,1.404,1.131,2.301,2.964,2.301C383.097,75.668,385.009,73.875,385.009,71.379z"/>
	<path fill="#FFFFFF" d="M401.349,62.643c1.287-1.912,3.159-3.277,5.889-3.277c3.16,0,5.188,1.482,6.085,3.9
		c1.287-2.184,3.276-3.9,6.435-3.9c4.837,0,6.865,3.082,6.865,7.566v9.439c0,1.988-1.015,2.613-2.418,2.613h-0.586
		c-1.481,0-2.496-0.586-2.496-2.613V67.83c0-2.535-1.131-3.86-3.314-3.86c-1.6,0-3.004,0.975-3.783,2.34v10.062
		c0,1.988-0.975,2.613-2.418,2.613h-0.547c-1.481,0-2.535-0.586-2.535-2.613v-8.425c0-2.652-1.092-3.978-3.275-3.978
		c-1.6,0-3.004,0.975-3.783,2.34v10.062c0,1.988-1.014,2.613-2.418,2.613h-0.586c-1.481,0-2.496-0.586-2.496-2.613V60.225
		c0-0.156,0.976-0.625,2.068-0.625C399.438,59.6,400.958,60.225,401.349,62.643z"/>
	<path fill="#FFFFFF" d="M431.105,69.467c0-5.811,4.173-10.102,9.945-10.102c5.616,0,9.478,3.939,9.478,9.518v0.39
		c-0.039,0.976-0.312,1.521-1.326,1.521h-13.144c0.39,2.848,2.574,4.524,5.538,4.524c2.887,0,4.485-1.287,5.383-2.808
		c0.039-0.078,2.651,0.272,2.651,2.457c0,2.066-2.925,4.367-8.229,4.367C435.2,79.334,431.105,75.474,431.105,69.467z
		 M436.059,67.596h9.36c-0.117-2.652-1.794-4.408-4.446-4.408C438.398,63.188,436.448,65.022,436.059,67.596z"/>
	<path fill="#FFFFFF" d="M463.319,83.782V60.225c0-0.156,0.975-0.625,2.066-0.625c1.443,0,3.004,0.702,3.354,3.315
		c1.209-2.185,3.354-3.55,6.24-3.55c5.148,0,8.814,3.861,8.814,9.945c0,5.93-3.628,10.023-8.893,10.023
		c-2.925,0-5.108-1.56-6.084-3.471v7.918c0,1.988-1.015,2.652-2.418,2.652h-0.585C464.333,86.434,463.319,85.809,463.319,83.782z
		 M478.491,69.35c0-3.314-1.99-5.576-4.876-5.576c-2.301,0-3.978,1.209-4.797,3.119v3.705c0.078,2.574,2.146,4.369,4.758,4.369
		C476.54,74.967,478.491,72.706,478.491,69.35z"/>
	<path fill="#FFFFFF" d="M487.498,73.758c0-4.369,3.9-6.357,12.247-6.475h0.624c0-2.457-1.365-3.783-3.9-3.783
		c-2.652,0-4.018,1.443-4.72,2.926c0,0.078-3.549,0.194-3.549-2.341c0-2.379,2.809-4.72,8.619-4.72c6.007,0,8.971,2.73,8.971,7.84
		v11.271c0,0.273-1.014,0.624-2.067,0.624c-1.755,0-2.925-0.937-3.237-3.003c-1.364,1.988-3.783,3.159-6.591,3.159
		C489.917,79.257,487.498,76.995,487.498,73.758z M500.369,71.379v-1.093l-1.015,0.039c-4.329,0.117-6.591,0.976-6.591,3.042
		c0,1.404,1.131,2.301,2.964,2.301C498.458,75.668,500.369,73.875,500.369,71.379z"/>
	<path fill="#FFFFFF" d="M509.064,81.753c0-2.652,2.457-4.407,5.929-4.915c-0.43-0.389-0.663-1.014-0.663-1.754
		c0-0.897,0.546-1.678,1.287-2.224c-3.237-0.937-5.227-3.276-5.227-6.279c0-4.095,3.627-7.177,8.697-7.177
		c1.482,0,2.887,0.312,4.096,0.82l0.818-1.561c0.741-1.365,1.521-1.911,2.73-1.911c1.95,0,2.808,2.224,2.691,2.34l-3.315,3.159
		c1.092,1.17,1.716,2.652,1.716,4.252c0,4.055-3.393,6.824-8.697,6.824h-0.272c-0.078,0.156-0.078,0.273-0.078,0.391
		c0,1.053,1.833,1.17,4.914,1.949c2.691,0.742,5.499,2.185,5.499,5.383c0,3.666-3.783,6.006-10.257,6.006
		C512.106,87.057,509.064,85.38,509.064,81.753z M518.971,78.829c-2.729,0.194-4.68,1.092-4.68,2.613
		c0,1.325,1.56,2.145,4.719,2.145s4.915-0.857,4.915-2.34C523.925,79.686,521.467,79.413,518.971,78.829z M522.715,66.504
		c0-2.107-1.481-3.55-3.666-3.55c-2.105,0-3.588,1.403-3.588,3.55c0,2.145,1.521,3.588,3.627,3.588
		C521.233,70.092,522.715,68.649,522.715,66.504z"/>
	<path fill="#FFFFFF" d="M531.841,69.467c0-5.811,4.174-10.102,9.945-10.102c5.616,0,9.478,3.939,9.478,9.518v0.39
		c-0.039,0.976-0.312,1.521-1.326,1.521h-13.144c0.391,2.848,2.574,4.524,5.539,4.524c2.886,0,4.484-1.287,5.382-2.808
		c0.039-0.078,2.652,0.272,2.652,2.457c0,2.066-2.926,4.367-8.229,4.367C535.937,79.334,531.841,75.474,531.841,69.467z
		 M536.794,67.596h9.36c-0.116-2.652-1.794-4.408-4.446-4.408C539.135,63.188,537.185,65.022,536.794,67.596z"/>
	<path fill="#FFFFFF" d="M555.474,76.527v-0.546c0-1.716,0.858-2.574,2.574-2.574h0.702c1.794,0,2.652,0.858,2.652,2.574v0.546
		c0,1.716-0.858,2.574-2.652,2.574h-0.702C556.371,79.101,555.474,78.243,555.474,76.527z"/>
</g>
<g>
	<path fill="#FFFFFF" d="M49.358,43.938V23.015c0-2.248,1.427-3.545,3.372-3.545h7.09c9.381,0,15.044,5.23,15.044,13.877
		c0,8.689-5.836,14.093-15.26,14.093h-6.701C50.915,47.44,49.358,45.884,49.358,43.938z M59.561,41.993
		c5.576,0,8.948-3.156,8.948-8.603c0-5.361-3.372-8.473-8.862-8.473H55.67v17.076H59.561z"/>
	<path fill="#FFFFFF" d="M79.357,19.729c0-1.902,1.297-3.069,3.415-3.069c2.119,0,3.416,1.124,3.416,3.069
		c0,1.946-1.297,3.113-3.416,3.113C80.654,22.842,79.357,21.675,79.357,19.729z M79.703,44.716V29.067
		c0-2.205,1.167-2.94,2.724-2.94h0.648c1.643,0,2.724,0.692,2.724,2.94v15.649c0,2.205-1.124,2.897-2.68,2.897H82.47
		C80.871,47.613,79.703,46.965,79.703,44.716z"/>
	<path fill="#FFFFFF" d="M88.91,50.682c0-2.939,2.723-4.885,6.571-5.447c-0.476-0.432-0.735-1.124-0.735-1.945
		c0-0.994,0.605-1.859,1.426-2.464c-3.588-1.037-5.792-3.631-5.792-6.96c0-4.539,4.02-7.954,9.64-7.954
		c1.643,0,3.199,0.346,4.539,0.908l0.908-1.729c0.822-1.513,1.686-2.118,3.026-2.118c2.162,0,3.113,2.464,2.983,2.594l-3.675,3.501
		c1.211,1.297,1.902,2.939,1.902,4.712c0,4.496-3.761,7.565-9.64,7.565h-0.303c-0.086,0.173-0.086,0.303-0.086,0.432
		c0,1.167,2.032,1.297,5.447,2.162c2.983,0.821,6.096,2.421,6.096,5.966c0,4.062-4.193,6.656-11.37,6.656
		C92.282,56.561,88.91,54.703,88.91,50.682z M99.891,47.44c-3.026,0.216-5.188,1.21-5.188,2.896c0,1.47,1.729,2.378,5.231,2.378
		c3.501,0,5.447-0.951,5.447-2.594C105.38,48.391,102.657,48.088,99.891,47.44z M104.041,33.779c0-2.334-1.643-3.934-4.063-3.934
		c-2.335,0-3.978,1.557-3.978,3.934c0,2.378,1.686,3.977,4.021,3.977C102.398,37.756,104.041,36.157,104.041,33.779z"/>
	<path fill="#FFFFFF" d="M114.241,19.729c0-1.902,1.297-3.069,3.415-3.069s3.415,1.124,3.415,3.069c0,1.946-1.297,3.113-3.415,3.113
		S114.241,21.675,114.241,19.729z M114.586,44.716V29.067c0-2.205,1.167-2.94,2.724-2.94h0.648c1.643,0,2.724,0.692,2.724,2.94
		v15.649c0,2.205-1.124,2.897-2.681,2.897h-0.648C115.753,47.613,114.586,46.965,114.586,44.716z"/>
	<path fill="#FFFFFF" d="M124.615,28.981v-0.389c0-1.47,0.821-2.248,2.55-2.248h1.038v-2.68c0-1.988,1.038-2.94,2.767-2.94h0.519
		c1.643,0,2.724,0.692,2.724,2.94v2.68h3.674c1.729,0,2.464,0.735,2.464,2.162v0.346c0,1.47-0.778,2.248-2.507,2.248h-3.761v8.992
		c0,2.075,0.692,3.113,2.335,3.113c1.253,0,2.075-0.605,2.723-1.427c0.086-0.129,1.47,0.692,1.47,2.378
		c0,2.118-2.118,3.847-5.576,3.847c-4.669,0-6.831-2.464-6.831-7.219v-9.684h-1.038C125.436,31.099,124.615,30.364,124.615,28.981z"
		/>
	<path fill="#FFFFFF" d="M143.029,41.82c0-4.842,4.323-7.046,13.574-7.176h0.692c0-2.724-1.513-4.193-4.323-4.193
		c-2.94,0-4.453,1.6-5.231,3.242c0,0.086-3.934,0.216-3.934-2.594c0-2.637,3.112-5.231,9.554-5.231c6.657,0,9.943,3.026,9.943,8.689
		v12.494c0,0.302-1.124,0.691-2.292,0.691c-1.945,0-3.242-1.038-3.588-3.329c-1.513,2.205-4.193,3.501-7.306,3.501
		C145.709,47.916,143.029,45.408,143.029,41.82z M157.295,39.183v-1.21l-1.124,0.043c-4.799,0.129-7.306,1.081-7.306,3.372
		c0,1.557,1.254,2.551,3.286,2.551C155.176,43.938,157.295,41.95,157.295,39.183z"/>
	<path fill="#FFFFFF" d="M168.749,44.716V18.087c0-0.216,1.081-0.692,2.291-0.692c1.816,0,3.805,0.951,3.805,4.885v22.436
		c0,2.205-1.124,2.897-2.681,2.897h-0.648C169.916,47.613,168.749,46.965,168.749,44.716z"/>
	<path fill="#FFFFFF" d="M49.358,78.577V56.054c0-1.945,0.951-2.896,2.68-2.896h0.951c1.815,0,2.767,0.95,2.767,2.896v8.517h12.104
		v-8.517c0-1.945,0.951-2.896,2.681-2.896h0.908c1.859,0,2.81,0.95,2.81,2.896v22.522c0,1.902-0.951,2.896-2.81,2.896h-0.908
		c-1.729,0-2.681-0.994-2.681-2.896v-8.602H55.757v8.602c0,1.902-0.952,2.896-2.767,2.896h-0.951
		C50.31,81.473,49.358,80.479,49.358,78.577z"/>
	<path fill="#FFFFFF" d="M78.838,75.68c0-4.841,4.323-7.046,13.574-7.176h0.692c0-2.723-1.513-4.193-4.323-4.193
		c-2.939,0-4.453,1.6-5.231,3.242c0,0.087-3.934,0.217-3.934-2.594c0-2.637,3.112-5.23,9.554-5.23c6.657,0,9.943,3.025,9.943,8.689
		v12.493c0,0.303-1.124,0.692-2.291,0.692c-1.946,0-3.243-1.038-3.588-3.329c-1.513,2.204-4.193,3.501-7.306,3.501
		C81.519,81.776,78.838,79.269,78.838,75.68z M93.104,73.043v-1.21l-1.124,0.043c-4.799,0.13-7.306,1.081-7.306,3.372
		c0,1.557,1.254,2.551,3.286,2.551C90.986,77.799,93.104,75.811,93.104,73.043z"/>
	<path fill="#FFFFFF" d="M110.394,63.577c0.865-2.421,2.594-3.848,5.145-3.848c2.464,0,3.934,1.383,3.934,3.545
		c0,2.421-1.859,3.285-1.945,3.199c-0.648-0.605-1.599-1.037-2.767-1.037c-2.983,0-4.28,2.594-4.28,6.83v6.311
		c0,2.205-1.124,2.896-2.68,2.896h-0.648c-1.643,0-2.767-0.648-2.767-2.896V60.68c0-0.173,1.081-0.691,2.291-0.691
		C108.275,59.989,110.004,60.723,110.394,63.577z"/>
	<path fill="#FFFFFF" d="M129.284,78.188v0.389c0,2.205-1.124,2.896-2.681,2.896h-0.648c-1.643,0-2.767-0.648-2.767-2.896V51.948
		c0-0.217,1.081-0.691,2.292-0.691c1.815,0,3.804,0.951,3.804,4.885v7.133c1.426-2.205,3.804-3.545,6.83-3.545
		c5.707,0,9.77,4.279,9.77,11.023c0,6.571-4.021,11.11-9.856,11.11C132.785,81.863,130.364,80.263,129.284,78.188z M140.004,70.795
		c0-3.674-2.205-6.182-5.403-6.182c-2.551,0-4.41,1.34-5.317,3.459v4.106c0.086,2.853,2.377,4.842,5.274,4.842
		C137.843,77.021,140.004,74.514,140.004,70.795z"/>
	<path fill="#FFFFFF" d="M149.081,70.752c0-6.484,4.625-11.023,11.326-11.023c6.657,0,11.24,4.539,11.24,11.11
		s-4.583,11.023-11.326,11.023C153.62,81.863,149.081,77.411,149.081,70.752z M166.243,70.839c0-3.675-2.464-6.354-5.879-6.354
		c-3.415,0-5.922,2.637-5.922,6.268c0,3.675,2.507,6.312,5.922,6.312C163.735,77.065,166.243,74.427,166.243,70.839z"/>
	<path fill="#FFFFFF" d="M181.976,63.577c0.865-2.421,2.594-3.848,5.144-3.848c2.464,0,3.934,1.383,3.934,3.545
		c0,2.421-1.858,3.285-1.945,3.199c-0.648-0.605-1.599-1.037-2.767-1.037c-2.982,0-4.28,2.594-4.28,6.83v6.311
		c0,2.205-1.124,2.896-2.68,2.896h-0.648c-1.643,0-2.767-0.648-2.767-2.896V60.68c0-0.173,1.081-0.691,2.291-0.691
		C179.858,59.989,181.587,60.723,181.976,63.577z"/>
</g>
</svg>
