<?xml version="1.0" encoding="utf-8"?>
<!-- Generator: Adobe Illustrator 15.1.0, SVG Export Plug-In . SVG Version: 6.00 Build 0)  -->
<!DOCTYPE svg PUBLIC "-//W3C//DTD SVG 1.1//EN" "http://www.w3.org/Graphics/SVG/1.1/DTD/svg11.dtd">
<svg version="1.1" id="Layer_1" xmlns="http://www.w3.org/2000/svg" xmlns:xlink="http://www.w3.org/1999/xlink" x="0px" y="0px"
	 width="144.57px" height="63.604px" viewBox="0 0 144.57 63.604" enable-background="new 0 0 144.57 63.604" xml:space="preserve">
<path stroke="#FFFFFF" stroke-miterlimit="10" d="M274.671,65.917H169.904c-5.79,0-10.5-4.71-10.5-10.5V-29.37
	c0-5.79,4.71-10.5,10.5-10.5h116.57c5.79,0,10.5,4.71,10.5,10.5v67.129h3V-29.37c0-7.444-6.056-13.5-13.5-13.5h-116.57
	c-7.444,0-13.5,6.056-13.5,13.5v84.787c0,7.444,6.056,13.5,13.5,13.5h104.768V65.917z"/>
<g>
	<path d="M154.711,28.549V14.997c0-1.456,0.924-2.296,2.184-2.296h4.592c6.076,0,9.744,3.388,9.744,8.988
		c0,5.628-3.78,9.128-9.884,9.128h-4.34C155.719,30.817,154.711,29.809,154.711,28.549z M161.319,27.289
		c3.612,0,5.796-2.044,5.796-5.572c0-3.472-2.184-5.488-5.74-5.488h-2.576v11.06H161.319z"/>
	<path d="M177.711,29.053V14.465c0-1.26,0.616-1.876,1.764-1.876h0.56c1.204,0,1.82,0.616,1.82,1.876v14.588
		c0,1.232-0.616,1.876-1.82,1.876h-0.56C178.327,30.929,177.711,30.285,177.711,29.053z"/>
	<path d="M202.615,28.605c-1.064,1.568-2.996,2.52-5.628,2.52c-5.236,0-8.596-3.92-8.596-9.352c0-5.516,3.864-9.436,9.576-9.436
		c4.452,0,7,2.072,7,3.948c0,1.624-2.016,2.1-2.128,1.96c-1.036-1.54-2.856-2.38-4.676-2.38c-3.22,0-5.572,2.436-5.572,6.048
		c0,3.584,2.072,6.048,5.32,6.048c2.548,0,4.368-1.372,4.62-3.444v-0.476h-3.22c-1.316,0-1.988-0.364-1.988-1.484v-0.168
		c0-1.176,0.672-1.484,1.988-1.484h5.124c1.288,0,1.736,0.672,1.708,1.96v7.672c0,0.112-0.616,0.392-1.372,0.392
		C203.763,30.929,202.783,30.481,202.615,28.605z"/>
	<path d="M212.987,29.053V14.465c0-1.26,0.616-1.876,1.764-1.876h0.56c1.204,0,1.82,0.616,1.82,1.876v14.588
		c0,1.232-0.616,1.876-1.82,1.876h-0.56C213.603,30.929,212.987,30.285,212.987,29.053z"/>
	<path d="M223.05,14.521v-0.112c0-1.12,0.672-1.708,1.904-1.708h12.292c1.26,0,1.904,0.588,1.904,1.708v0.112
		c0,1.176-0.644,1.792-1.904,1.792h-4.06v12.74c0,1.232-0.644,1.876-1.82,1.876h-0.588c-1.148,0-1.708-0.644-1.708-1.876v-12.74
		h-4.116C223.722,16.313,223.05,15.697,223.05,14.521z"/>
	<path d="M253.946,26.197h-6.636l-1.092,2.912c-0.504,1.428-1.372,1.904-2.268,1.904c-1.148,0-2.296-0.896-2.156-1.26l6.188-15.988
		c0.224-0.756,0.812-1.232,2.688-1.232c1.904,0,2.408,0.476,2.66,1.232l6.328,15.96c0.14,0.336-1.008,1.288-2.24,1.288
		c-0.896,0-1.82-0.476-2.38-1.96L253.946,26.197z M248.122,23.117h4.984l-2.492-6.58L248.122,23.117z"/>
	<path d="M265.158,28.549V14.465c0-1.26,0.616-1.876,1.736-1.876h0.588c1.204,0,1.82,0.616,1.82,1.876v12.712h6.776
		c1.288,0,1.904,0.588,1.904,1.736v0.112c0,1.148-0.616,1.792-1.904,1.792h-8.764C265.97,30.817,265.158,30.005,265.158,28.549z"/>
	<path d="M154.711,53.053V38.465c0-1.26,0.616-1.876,1.736-1.876h0.616c1.176,0,1.792,0.616,1.792,1.876v5.516h7.84v-5.516
		c0-1.26,0.616-1.876,1.736-1.876h0.588c1.204,0,1.82,0.616,1.82,1.876v14.588c0,1.232-0.616,1.876-1.82,1.876h-0.588
		c-1.12,0-1.736-0.644-1.736-1.876v-5.572h-7.84v5.572c0,1.232-0.616,1.876-1.792,1.876h-0.616
		C155.328,54.929,154.711,54.285,154.711,53.053z"/>
	<path d="M187.849,50.197h-6.636l-1.092,2.912c-0.504,1.428-1.372,1.904-2.268,1.904c-1.148,0-2.296-0.896-2.156-1.26l6.188-15.988
		c0.224-0.756,0.812-1.232,2.688-1.232c1.904,0,2.408,0.476,2.66,1.232l6.328,15.96c0.14,0.336-1.008,1.288-2.24,1.288
		c-0.896,0-1.82-0.476-2.38-1.96L187.849,50.197z M182.025,47.117h4.984l-2.492-6.58L182.025,47.117z"/>
	<path d="M207.911,53.249l-3.864-4.872h-1.568v4.676c0,1.176-0.616,1.876-1.792,1.876h-0.588c-1.12,0-1.736-0.812-1.736-2.268
		V38.997c0-1.456,0.812-2.296,2.156-2.296h5.348c4.704,0,7.14,1.96,7.14,5.656c0,2.912-1.652,4.872-4.704,5.376l4.704,5.684
		c0.168,0.196-0.616,1.512-2.38,1.512C209.451,54.929,208.779,54.425,207.911,53.249z M202.423,45.353h3.164
		c2.212,0,3.276-1.036,3.276-2.716c0-1.764-1.12-2.716-3.36-2.716h-3.08V45.353z"/>
	<path d="M218.593,52.521V38.997c0-1.456,0.812-2.296,2.156-2.296h6.216c4.088,0,6.3,1.652,6.3,4.62
		c0,2.044-1.148,3.276-3.248,3.864c2.688,0.616,3.92,2.296,3.92,4.48c0,3.5-2.212,5.152-7.308,5.152h-5.88
		C219.405,54.817,218.593,53.977,218.593,52.521z M225.985,44.317c1.904,0,3.024-0.868,3.024-2.324c0-1.484-1.008-2.212-3.024-2.212
		h-3.304v4.536H225.985z M226.209,51.737c2.464,0,3.5-0.728,3.5-2.464c0-1.596-1.12-2.324-3.472-2.324h-3.556v4.788H226.209z"/>
	<path d="M238.74,45.773c0-5.516,3.92-9.436,9.352-9.436c5.488,0,9.324,3.892,9.324,9.408c0,5.544-3.864,9.436-9.352,9.436
		C242.576,55.181,238.74,51.317,238.74,45.773z M253.328,45.773c0-3.416-2.156-5.796-5.264-5.796c-3.108,0-5.208,2.296-5.208,5.768
		c0,3.416,2.128,5.768,5.236,5.768S253.328,49.189,253.328,45.773z"/>
	<path d="M272.522,53.249l-3.864-4.872h-1.568v4.676c0,1.176-0.616,1.876-1.792,1.876h-0.588c-1.12,0-1.736-0.812-1.736-2.268
		V38.997c0-1.456,0.812-2.296,2.156-2.296h5.348c4.704,0,7.14,1.96,7.14,5.656c0,2.912-1.652,4.872-4.704,5.376l4.704,5.684
		c0.168,0.196-0.616,1.512-2.38,1.512C274.062,54.929,273.39,54.425,272.522,53.249z M267.034,45.353h3.164
		c2.212,0,3.276-1.036,3.276-2.716c0-1.764-1.12-2.716-3.36-2.716h-3.08V45.353z"/>
</g>
<g>
	<path fill="#FFFFFF" d="M11.141,24.402V10.851c0-1.456,0.924-2.296,2.184-2.296h4.592c6.076,0,9.744,3.388,9.744,8.988
		c0,5.628-3.78,9.128-9.884,9.128h-4.34C12.149,26.67,11.141,25.663,11.141,24.402z M17.749,23.143c3.612,0,5.796-2.044,5.796-5.572
		c0-3.472-2.184-5.488-5.74-5.488h-2.576v11.06H17.749z"/>
	<path fill="#FFFFFF" d="M34.141,24.906V10.318c0-1.26,0.616-1.876,1.764-1.876h0.56c1.204,0,1.82,0.616,1.82,1.876v14.588
		c0,1.232-0.616,1.876-1.82,1.876h-0.56C34.757,26.782,34.141,26.138,34.141,24.906z"/>
	<path fill="#FFFFFF" d="M59.044,24.458c-1.064,1.568-2.996,2.52-5.628,2.52c-5.236,0-8.596-3.92-8.596-9.352
		c0-5.516,3.864-9.436,9.576-9.436c4.452,0,7,2.072,7,3.948c0,1.624-2.016,2.1-2.128,1.96c-1.036-1.54-2.856-2.38-4.676-2.38
		c-3.22,0-5.572,2.436-5.572,6.048c0,3.584,2.072,6.048,5.32,6.048c2.548,0,4.368-1.372,4.62-3.444v-0.476h-3.22
		c-1.316,0-1.988-0.364-1.988-1.484v-0.168c0-1.176,0.672-1.484,1.988-1.484h5.124c1.288,0,1.736,0.672,1.708,1.96v7.672
		c0,0.112-0.616,0.392-1.372,0.392C60.192,26.782,59.212,26.334,59.044,24.458z"/>
	<path fill="#FFFFFF" d="M69.417,24.906V10.318c0-1.26,0.616-1.876,1.764-1.876h0.56c1.204,0,1.82,0.616,1.82,1.876v14.588
		c0,1.232-0.616,1.876-1.82,1.876h-0.56C70.032,26.782,69.417,26.138,69.417,24.906z"/>
	<path fill="#FFFFFF" d="M79.48,10.375v-0.112c0-1.12,0.672-1.708,1.904-1.708h12.292c1.26,0,1.904,0.588,1.904,1.708v0.112
		c0,1.176-0.644,1.792-1.904,1.792h-4.06v12.74c0,1.232-0.644,1.876-1.82,1.876h-0.588c-1.148,0-1.708-0.644-1.708-1.876v-12.74
		h-4.116C80.152,12.167,79.48,11.55,79.48,10.375z"/>
	<path fill="#FFFFFF" d="M110.376,22.05h-6.636l-1.092,2.912c-0.504,1.428-1.372,1.904-2.268,1.904c-1.148,0-2.296-0.896-2.156-1.26
		l6.188-15.988c0.224-0.756,0.812-1.232,2.688-1.232c1.904,0,2.408,0.476,2.66,1.232l6.328,15.96c0.14,0.336-1.008,1.288-2.24,1.288
		c-0.896,0-1.82-0.476-2.38-1.96L110.376,22.05z M104.552,18.97h4.984l-2.492-6.58L104.552,18.97z"/>
	<path fill="#FFFFFF" d="M121.587,24.402V10.318c0-1.26,0.616-1.876,1.736-1.876h0.588c1.204,0,1.82,0.616,1.82,1.876V23.03h6.776
		c1.288,0,1.904,0.588,1.904,1.736v0.112c0,1.148-0.616,1.792-1.904,1.792h-8.764C122.399,26.67,121.587,25.858,121.587,24.402z"/>
	<path fill="#FFFFFF" d="M11.141,48.906V34.318c0-1.26,0.616-1.876,1.736-1.876h0.616c1.176,0,1.792,0.616,1.792,1.876v5.516h7.84
		v-5.516c0-1.26,0.616-1.876,1.736-1.876h0.588c1.204,0,1.82,0.616,1.82,1.876v14.588c0,1.232-0.616,1.876-1.82,1.876h-0.588
		c-1.12,0-1.736-0.644-1.736-1.876v-5.572h-7.84v5.572c0,1.232-0.616,1.876-1.792,1.876h-0.616
		C11.757,50.782,11.141,50.138,11.141,48.906z"/>
	<path fill="#FFFFFF" d="M44.279,46.05h-6.636l-1.092,2.912c-0.504,1.428-1.372,1.904-2.268,1.904c-1.148,0-2.296-0.896-2.156-1.26
		l6.188-15.988c0.224-0.756,0.812-1.232,2.688-1.232c1.904,0,2.408,0.476,2.66,1.232l6.328,15.96c0.14,0.336-1.008,1.288-2.24,1.288
		c-0.896,0-1.82-0.476-2.38-1.96L44.279,46.05z M38.455,42.97h4.984l-2.492-6.58L38.455,42.97z"/>
	<path fill="#FFFFFF" d="M64.341,49.103l-3.864-4.872h-1.568v4.676c0,1.176-0.616,1.876-1.792,1.876h-0.588
		c-1.12,0-1.736-0.812-1.736-2.268V34.851c0-1.456,0.812-2.296,2.156-2.296h5.348c4.704,0,7.14,1.96,7.14,5.656
		c0,2.912-1.652,4.872-4.704,5.376l4.704,5.684c0.168,0.196-0.616,1.512-2.38,1.512C65.881,50.782,65.209,50.278,64.341,49.103z
		 M58.853,41.207h3.164c2.212,0,3.276-1.036,3.276-2.716c0-1.764-1.12-2.716-3.36-2.716h-3.08V41.207z"/>
	<path fill="#FFFFFF" d="M75.023,48.375V34.851c0-1.456,0.812-2.296,2.156-2.296h6.216c4.088,0,6.3,1.652,6.3,4.62
		c0,2.044-1.148,3.276-3.248,3.864c2.688,0.616,3.92,2.296,3.92,4.48c0,3.5-2.212,5.152-7.308,5.152h-5.88
		C75.835,50.67,75.023,49.831,75.023,48.375z M82.415,40.17c1.904,0,3.024-0.868,3.024-2.324c0-1.484-1.008-2.212-3.024-2.212
		h-3.304v4.536H82.415z M82.639,47.59c2.464,0,3.5-0.728,3.5-2.464c0-1.596-1.12-2.324-3.472-2.324h-3.556v4.788H82.639z"/>
	<path fill="#FFFFFF" d="M95.169,41.626c0-5.516,3.92-9.436,9.352-9.436c5.488,0,9.324,3.892,9.324,9.408
		c0,5.544-3.864,9.436-9.352,9.436C99.005,51.034,95.169,47.17,95.169,41.626z M109.757,41.626c0-3.416-2.156-5.796-5.264-5.796
		c-3.108,0-5.208,2.296-5.208,5.768c0,3.416,2.128,5.768,5.236,5.768S109.757,45.042,109.757,41.626z"/>
	<path fill="#FFFFFF" d="M128.952,49.103l-3.864-4.872h-1.568v4.676c0,1.176-0.616,1.876-1.792,1.876h-0.588
		c-1.12,0-1.736-0.812-1.736-2.268V34.851c0-1.456,0.812-2.296,2.156-2.296h5.348c4.704,0,7.14,1.96,7.14,5.656
		c0,2.912-1.652,4.872-4.704,5.376l4.704,5.684c0.168,0.196-0.616,1.512-2.38,1.512C130.492,50.782,129.82,50.278,128.952,49.103z
		 M123.464,41.207h3.164c2.212,0,3.276-1.036,3.276-2.716c0-1.764-1.12-2.716-3.36-2.716h-3.08V41.207z"/>
</g>
<path fill="#FFFFFF" d="M0,0v49.604c0,7.72,6.28,14,14,14h105.268v-4H14c-5.514,0-10-4.486-10-10V0H0z"/>
<rect x="140.57" fill="#FFFFFF" width="4" height="32.446"/>
</svg>
